<svg width="22" height="22" viewBox="0 0 22 22" fill="none" xmlns="http://www.w3.org/2000/svg">
<path d="M21.4859 11.2059C21.4859 10.3045 21.4128 9.64681 21.2545 8.96472H10.9622V13.0329H17.0036C16.8818 14.0439 16.2241 15.5664 14.7624 16.5895L14.7419 16.7257L17.9962 19.2467L18.2216 19.2692C20.2922 17.3569 21.4859 14.5432 21.4859 11.2059Z" fill="#4285F4"/>
<path d="M10.9622 21.9244C13.9219 21.9244 16.4067 20.9499 18.2216 19.2691L14.7624 16.5894C13.8367 17.2349 12.5943 17.6856 10.9622 17.6856C8.06331 17.6856 5.60292 15.7734 4.72586 13.1302L4.5973 13.1412L1.2135 15.7599L1.16925 15.8829C2.97191 19.4639 6.67471 21.9244 10.9622 21.9244Z" fill="#34A853"/>
<path d="M4.72589 13.1303C4.49447 12.4482 4.36053 11.7174 4.36053 10.9622C4.36053 10.207 4.49447 9.47621 4.71371 8.79413L4.70758 8.64886L1.28137 5.98804L1.16927 6.04136C0.426313 7.52737 0 9.19609 0 10.9622C0 12.7283 0.426313 14.397 1.16927 15.883L4.72589 13.1303Z" fill="#FBBC05"/>
<path d="M10.9622 4.23869C13.0206 4.23869 14.4091 5.12785 15.2009 5.87089L18.2947 2.85018C16.3946 1.08405 13.9219 0 10.9622 0C6.67471 0 2.97191 2.46039 1.16925 6.04135L4.71369 8.79412C5.60292 6.15102 8.06331 4.23869 10.9622 4.23869Z" fill="#EB4335"/>
</svg>
